<svg width="256" height="256" viewBox="0 0 256 256" fill="none" xmlns="http://www.w3.org/2000/svg">
<path d="M86.4608 5.04245C94.7366 5.04245 101.758 7.57843 106.938 13.0737H106.939C111.984 18.3364 114.431 24.9601 114.431 32.5962V36.7495L110.292 37.0825L88.2606 38.854L61.7479 63.8491L54.0223 94.9995L51.6072 130.005L51.3182 134.195H47.118C43.996 134.195 41.1199 133.856 38.6951 132.975C36.2171 132.074 33.939 130.494 32.6473 127.912C30.9565 124.531 30.2723 120.418 30.2723 115.863C30.2723 111.655 30.8712 106.937 32.0037 101.749C33.0915 96.765 34.1794 91.8713 35.2674 87.0678C36.3147 82.3531 36.784 78.6928 36.784 75.9926C36.784 73.96 36.5767 70.658 36.1268 65.9809L36.1229 65.9389L36.119 65.896C35.7587 61.2145 35.3538 56.3501 34.9031 51.3042L34.8992 51.2622L34.8963 51.2192C34.5309 46.0143 34.3426 41.6946 34.3426 38.2924C34.3426 33.5982 36.2576 29.1093 39.4276 24.9057C42.4668 20.7897 45.9629 17.1927 49.9139 14.1303C53.6034 11.1847 57.1314 8.97068 60.3651 8.07468V8.07272C62.2551 7.51708 65.782 6.89081 70.6072 6.17624C75.7225 5.41873 81.0081 5.04246 86.4608 5.04245Z" fill="#2B7489" stroke="#F6FBFB" stroke-width="9"/>
<path d="M103 217L95 195L77 200L87.5 176L103 159H126L145 144L153.5 127L161.5 144L174.5 148.5L186.5 131.5L201.5 126.5L218 101L235 78.5L228 52.5L212.5 27L196 15H155.5L133.5 31.5L95 33.5L56.5 65L53.5 127L24 126.5L26 144L50 159L42 200L55 236.5L87.5 243.5L103 217Z" fill="#2B7489"/>
<path d="M76.4217 247C69.4575 247 63.1717 245.192 57.5641 241.576C52.0471 237.869 47.6605 232.896 44.4045 226.658C41.1486 220.42 39.5206 213.549 39.5206 206.045C39.5206 200.259 40.1989 194.608 41.5556 189.093C43.0027 183.579 44.4045 178.199 45.7612 172.956C47.1179 167.621 47.7962 162.468 47.7962 157.496C47.7962 147.28 47.3892 136.973 46.5752 126.576C45.8516 116.089 45.4899 105.511 45.4899 94.8427C45.4899 91.4072 46.0325 88.2429 47.1179 85.3499C48.2936 82.4568 49.7407 79.7445 51.4592 77.2131C51.4592 66.997 54.2177 58.0917 59.7348 50.4974C65.2519 42.9031 72.8944 36.9814 82.6624 32.7322C92.5208 28.3926 103.826 26.1324 116.579 25.9516L132.994 25.6803C136.16 22.2448 139.326 19.4422 142.491 17.2724C145.657 15.1026 149.32 13.43 153.48 12.2547C157.731 10.989 162.931 10.1301 169.082 9.67806C175.232 9.22602 182.829 9 191.874 9C197.21 9 202.184 10.5821 206.797 13.7464C211.5 16.9107 215.751 21.0243 219.549 26.0872C223.348 31.0596 226.604 36.3485 229.317 41.9538C232.121 47.4688 234.247 52.6672 235.694 57.5493C237.231 62.4313 238 66.2737 238 69.0764C238 75.6762 237.096 81.0103 235.287 85.0786C233.478 89.147 231.262 92.5373 228.639 95.2496C226.107 97.8714 223.71 100.403 221.449 102.844C219.188 105.194 217.65 107.997 216.836 111.252C215.66 115.953 213.399 120.202 210.053 123.999C206.797 127.706 201.551 131.187 194.316 134.442C191.421 135.707 189.07 137.877 187.261 140.951C185.542 143.934 183.598 146.737 181.427 149.359C179.257 151.89 176.001 153.156 171.659 153.156C167.861 153.156 164.424 151.981 161.349 149.63C158.364 147.28 155.832 143.482 153.751 138.239C151.038 146.104 147.059 152.252 141.813 156.682C136.657 161.022 130.01 163.191 121.87 163.191C119.518 163.191 116.579 162.785 113.052 161.971C109.615 161.157 106.72 160.072 104.369 158.716C104.007 160.344 102.922 162.423 101.113 164.954C99.3945 167.486 96.7264 171.012 93.1087 175.532C88.7673 180.866 86.0088 184.754 84.833 187.195C83.6573 189.636 83.0694 191.354 83.0694 192.348C83.0694 193.071 83.4764 193.433 84.2904 193.433C84.9235 193.433 85.6018 193.297 86.3253 193.026C87.1393 192.665 88.0438 192.303 89.0387 191.941C90.0336 191.58 91.1189 191.399 92.2947 191.399C96.7264 191.399 100.48 193.749 103.555 198.451C106.63 203.152 108.168 208.757 108.168 215.267C108.168 224.398 105.228 231.992 99.3493 238.05C93.4704 244.017 85.8279 247 76.4217 247ZM50.3738 164.141C38.9779 157.722 30.5666 151.755 25.14 146.24C19.7133 140.635 17 135.12 17 129.695C17 126.531 17.9949 123.819 19.9847 121.558C21.9744 119.298 24.8686 118.168 28.6673 118.168C30.7475 118.168 34.0035 118.801 38.4352 120.067C42.9574 121.242 47.344 122.869 51.5948 124.949L49.5598 134.035C47.9319 133.04 45.6708 132.091 42.7765 131.187C39.9728 130.192 37.2142 129.379 34.5009 128.746C31.878 128.023 30.0239 127.661 28.9386 127.661C26.9488 127.661 25.954 128.972 25.954 131.594C25.954 134.216 28.0342 137.425 32.1946 141.222C36.4455 144.929 42.5052 148.817 50.3738 152.885V164.141ZM114.273 167.26C109.027 167.26 104.595 165.452 100.977 161.835C97.3595 158.129 95.5506 153.699 95.5506 148.545C95.5506 144.929 96.636 141.358 98.8066 137.832C100.977 134.216 103.736 131.187 107.082 128.746C110.429 126.305 113.775 125.084 117.122 125.084C122.277 125.084 126.211 127.525 128.924 132.407C131.728 137.289 133.13 142.669 133.13 148.545C133.13 153.789 131.276 158.219 127.568 161.835C123.86 165.452 119.428 167.26 114.273 167.26ZM114.273 157.903C116.805 157.903 118.93 156.998 120.649 155.19C122.458 153.292 123.362 151.077 123.362 148.545C123.362 145.652 122.82 142.578 121.734 139.324C120.649 136.069 119.066 134.442 116.986 134.442C114.996 134.442 112.554 136.024 109.66 139.188C106.766 142.262 105.319 145.381 105.319 148.545C105.319 151.077 106.133 153.292 107.761 155.19C109.479 156.998 111.65 157.903 114.273 157.903ZM76.4217 236.151C82.8433 236.151 87.9081 234.252 91.6163 230.455C95.415 226.568 97.3143 221.505 97.3143 215.267C97.3143 211.56 96.7264 208.441 95.5506 205.909C94.4653 203.378 93.0182 202.112 91.2093 202.112C89.4004 202.112 87.9986 202.926 87.0037 204.553C86.0088 206.181 84.8782 207.853 83.612 209.571C82.3458 211.198 80.356 212.012 77.6427 212.012C75.3816 212.012 73.4823 211.108 71.9447 209.3C70.4072 207.401 69.6384 204.598 69.6384 200.892C69.6384 196.733 70.7238 192.393 72.8944 187.873C75.1555 183.262 79.135 177.521 84.833 170.65C88.2699 166.491 91.4354 162.423 94.3297 158.445C97.3143 154.467 99.5302 150.579 100.977 146.782L107.625 158.309L117.122 160.344L124.448 152.885C131.05 152.885 136.341 149.404 140.32 142.443C144.3 135.391 146.29 126.802 146.29 116.676V82.2308H156.736C156.736 94.9783 157.414 105.827 158.771 114.778C160.128 123.728 161.937 130.554 164.198 135.255C166.459 139.957 168.946 142.307 171.659 142.307C174.101 142.307 176.046 141.087 177.493 138.646C178.94 136.114 180.523 133.447 182.241 130.644C183.96 127.751 186.356 125.762 189.432 124.677C195.491 122.598 199.833 119.841 202.455 116.405C205.078 112.879 206.978 108.404 208.153 102.979C208.606 100.719 209.827 98.6399 211.816 96.7413C213.806 94.8427 215.977 92.7633 218.328 90.5031C220.68 88.1525 222.715 85.3047 224.433 81.9595C226.242 78.6144 227.147 74.3652 227.147 69.212C227.147 66.3189 226.152 62.1601 224.162 56.7356C222.263 51.3111 219.64 45.7962 216.293 40.1909C212.947 34.4952 209.058 29.7035 204.626 25.816C200.285 21.838 195.672 19.849 190.788 19.849C182.015 19.849 174.87 20.0298 169.353 20.3915C163.926 20.7531 159.449 21.5216 155.922 22.6969C152.485 23.7818 149.41 25.4543 146.697 27.7145C144.074 29.8843 141.134 32.8226 137.878 36.5293L116.579 36.8006C99.6658 36.9814 86.3706 41.095 76.6931 49.1413C67.106 57.0972 62.3125 67.675 62.3125 80.8746C60.5036 82.954 59.0565 85.169 57.9711 87.5197C56.8858 89.7799 56.3432 92.4921 56.3432 95.6564C56.3432 101.895 56.524 108.72 56.8858 116.134C57.338 123.547 57.745 130.87 58.1068 138.103C58.4686 145.245 58.6495 151.71 58.6495 157.496C58.6495 162.287 57.9711 167.441 56.6145 172.956C55.2578 178.47 53.8559 184.076 52.4088 189.772C51.0522 195.377 50.3738 200.801 50.3738 206.045C50.3738 214.815 52.7706 222.047 57.5641 227.743C62.4481 233.348 68.734 236.151 76.4217 236.151ZM117.936 113.286C115.584 113.286 113.549 112.427 111.831 110.709C110.112 108.901 109.253 106.822 109.253 104.471C109.253 102.121 110.112 100.086 111.831 98.3687C113.549 96.6509 115.584 95.792 117.936 95.792C120.287 95.792 122.322 96.6509 124.041 98.3687C125.759 100.086 126.618 102.121 126.618 104.471C126.618 106.822 125.759 108.901 124.041 110.709C122.322 112.427 120.287 113.286 117.936 113.286Z" fill="#F6FBFB"/>
</svg>
