<svg width="256" height="256" viewBox="0 0 256 256" fill="none" xmlns="http://www.w3.org/2000/svg">
<g clip-path="url(#clip0_28_2)">
<rect width="256" height="256" rx="12" fill="#F6FBFB"/>
<path d="M230.575 166.393V158.676H247.552V99.0529H230.575V91.336H256V166.393H230.575Z" fill="#2B7489"/>
<path d="M146.514 158.311C144.429 158.311 142.547 157.769 140.869 156.686C139.217 155.576 137.904 154.087 136.929 152.218C135.954 150.35 135.467 148.292 135.467 146.045C135.467 144.312 135.67 142.62 136.076 140.968C136.509 139.316 136.929 137.705 137.335 136.135C137.741 134.537 137.944 132.994 137.944 131.505C137.944 128.445 137.822 125.358 137.579 122.244C137.362 119.103 137.254 115.935 137.254 112.74C137.254 111.711 137.416 110.764 137.741 109.897C138.093 109.031 138.526 108.218 139.041 107.46C139.041 104.401 139.867 101.734 141.518 99.459C143.17 97.1846 145.458 95.4111 148.382 94.1384C151.334 92.8388 154.718 92.1618 158.536 92.1077L163.451 92.0264C164.398 90.9975 165.346 90.1581 166.294 89.5083C167.241 88.8585 168.338 88.3575 169.584 88.0055C170.856 87.6265 172.413 87.3692 174.254 87.2338C176.096 87.0985 178.37 87.0308 181.078 87.0308C182.675 87.0308 184.165 87.5046 185.545 88.4523C186.953 89.4 188.226 90.632 189.363 92.1483C190.501 93.6375 191.475 95.2215 192.288 96.9003C193.127 98.552 193.763 100.109 194.197 101.571C194.657 103.033 194.887 104.184 194.887 105.023C194.887 107 194.616 108.597 194.075 109.816C193.533 111.034 192.87 112.05 192.085 112.862C191.326 113.647 190.609 114.405 189.932 115.137C189.255 115.841 188.795 116.68 188.551 117.655C188.199 119.063 187.522 120.335 186.52 121.473C185.545 122.583 183.975 123.625 181.809 124.6C180.942 124.979 180.238 125.629 179.697 126.549C179.182 127.443 178.6 128.282 177.95 129.068C177.301 129.826 176.326 130.205 175.026 130.205C173.889 130.205 172.86 129.853 171.939 129.149C171.046 128.445 170.288 127.308 169.665 125.737C168.853 128.093 167.661 129.934 166.091 131.261C164.547 132.561 162.557 133.21 160.12 133.21C159.416 133.21 158.536 133.089 157.48 132.845C156.451 132.601 155.585 132.276 154.881 131.87C154.773 132.357 154.448 132.98 153.906 133.738C153.392 134.497 152.593 135.553 151.51 136.906C150.21 138.504 149.384 139.668 149.032 140.399C148.68 141.13 148.504 141.645 148.504 141.943C148.504 142.159 148.626 142.268 148.87 142.268C149.059 142.268 149.262 142.227 149.479 142.146C149.723 142.037 149.993 141.929 150.291 141.821C150.589 141.713 150.914 141.658 151.266 141.658C152.593 141.658 153.717 142.362 154.637 143.77C155.558 145.178 156.018 146.857 156.018 148.807C156.018 151.541 155.138 153.816 153.378 155.63C151.618 157.417 149.33 158.311 146.514 158.311ZM138.716 133.495C135.304 131.572 132.786 129.785 131.162 128.133C129.537 126.455 128.725 124.803 128.725 123.178C128.725 122.231 129.022 121.418 129.618 120.741C130.214 120.065 131.08 119.726 132.218 119.726C132.84 119.726 133.815 119.916 135.142 120.295C136.496 120.647 137.809 121.134 139.082 121.757L138.472 124.478C137.985 124.18 137.308 123.896 136.442 123.625C135.602 123.327 134.776 123.084 133.964 122.894C133.179 122.677 132.624 122.569 132.299 122.569C131.703 122.569 131.405 122.962 131.405 123.747C131.405 124.532 132.028 125.493 133.274 126.631C134.546 127.741 136.36 128.905 138.716 130.124V133.495ZM164.547 150.309C162.408 148.333 160.878 146.641 159.958 145.233C159.037 143.825 158.577 142.457 158.577 141.13C158.577 139.993 158.699 138.599 158.942 136.947C159.213 135.295 159.511 133.847 159.836 132.601L164.263 135.85L166.05 142.024L164.547 150.309ZM157.846 134.429C156.275 134.429 154.949 133.887 153.865 132.804C152.782 131.694 152.241 130.367 152.241 128.824C152.241 127.741 152.566 126.671 153.216 125.615C153.865 124.532 154.691 123.625 155.693 122.894C156.695 122.163 157.697 121.797 158.699 121.797C160.242 121.797 161.42 122.529 162.232 123.991C163.072 125.453 163.491 127.064 163.491 128.824C163.491 130.394 162.936 131.721 161.826 132.804C160.716 133.887 159.389 134.429 157.846 134.429ZM157.846 131.626C158.604 131.626 159.24 131.356 159.755 130.814C160.296 130.245 160.567 129.582 160.567 128.824C160.567 127.957 160.405 127.037 160.08 126.062C159.755 125.087 159.281 124.6 158.658 124.6C158.062 124.6 157.331 125.074 156.465 126.021C155.598 126.942 155.165 127.876 155.165 128.824C155.165 129.582 155.409 130.245 155.896 130.814C156.411 131.356 157.061 131.626 157.846 131.626ZM186.236 166.19C184.855 166.19 183.853 165.987 183.23 165.581C182.608 165.202 182.296 164.484 182.296 163.428C182.296 162.426 182.391 161.303 182.581 160.057C182.77 158.839 182.865 157.783 182.865 156.889V146.613L194.237 146.695C193.235 149.24 192.477 151.677 191.963 154.005C191.448 156.334 191.191 159.055 191.191 162.169C191.191 163.577 190.839 164.592 190.135 165.215C189.458 165.865 188.158 166.19 186.236 166.19ZM137.741 123.178C136.035 123.178 134.993 122.799 134.614 122.041C134.235 121.283 134.045 120.281 134.045 119.036C134.045 117.898 134.208 116.585 134.533 115.096C134.858 113.607 135.182 112.145 135.507 110.709C135.832 109.247 135.995 108.042 135.995 107.095C135.995 106.418 135.927 105.375 135.792 103.967C135.683 102.559 135.562 101.097 135.426 99.5809C135.318 98.0375 135.264 96.7784 135.264 95.8037C135.264 94.7747 135.683 93.7052 136.523 92.5951C137.362 91.4578 138.323 90.4695 139.406 89.6301C140.49 88.7637 141.383 88.2357 142.087 88.0461C142.547 87.9108 143.509 87.7348 144.971 87.5181C146.433 87.3015 147.949 87.1932 149.52 87.1932C151.713 87.1932 153.432 87.8566 154.678 89.1834C155.923 90.4831 156.546 92.1212 156.546 94.0978L149.479 94.6664L140.909 102.749L138.472 112.578L137.741 123.178ZM146.514 155.061C148.437 155.061 149.953 154.493 151.063 153.356C152.2 152.191 152.769 150.675 152.769 148.807C152.769 147.697 152.593 146.762 152.241 146.004C151.916 145.246 151.483 144.867 150.941 144.867C150.4 144.867 149.98 145.111 149.682 145.598C149.384 146.085 149.046 146.586 148.667 147.101C148.288 147.588 147.692 147.832 146.88 147.832C146.203 147.832 145.634 147.561 145.174 147.02C144.714 146.451 144.483 145.612 144.483 144.501C144.483 143.256 144.808 141.956 145.458 140.602C146.135 139.221 147.326 137.502 149.032 135.444C150.061 134.199 151.009 132.98 151.875 131.789C152.769 130.597 153.432 129.433 153.865 128.296L155.856 131.748L158.699 132.357L160.892 130.124C162.869 130.124 164.453 129.081 165.644 126.996C166.835 124.884 167.431 122.312 167.431 119.279V108.963H170.558C170.558 112.781 170.761 116.03 171.168 118.711C171.574 121.391 172.115 123.436 172.792 124.844C173.469 126.252 174.214 126.956 175.026 126.956C175.757 126.956 176.339 126.59 176.773 125.859C177.206 125.101 177.68 124.302 178.194 123.463C178.709 122.596 179.426 122.001 180.347 121.676C182.161 121.053 183.461 120.227 184.246 119.198C185.031 118.142 185.6 116.802 185.952 115.177C186.087 114.5 186.453 113.877 187.048 113.309C187.644 112.74 188.294 112.117 188.998 111.441C189.702 110.737 190.311 109.884 190.825 108.882C191.367 107.88 191.638 106.607 191.638 105.064C191.638 104.198 191.34 102.952 190.744 101.327C190.176 99.7027 189.39 98.0511 188.389 96.3723C187.387 94.6664 186.222 93.2314 184.896 92.0671C183.596 90.8757 182.215 90.28 180.753 90.28C178.126 90.28 175.987 90.3341 174.336 90.4424C172.711 90.5508 171.371 90.7809 170.315 91.1329C169.286 91.4578 168.365 91.9588 167.553 92.6357C166.768 93.2855 165.888 94.1655 164.913 95.2757L158.536 95.3569C153.473 95.4111 149.493 96.6431 146.595 99.0529C143.725 101.436 142.29 104.604 142.29 108.557C141.749 109.18 141.315 109.843 140.99 110.547C140.666 111.224 140.503 112.036 140.503 112.984C140.503 114.852 140.557 116.897 140.666 119.117C140.801 121.337 140.923 123.53 141.031 125.697C141.139 127.836 141.194 129.772 141.194 131.505C141.194 132.94 140.99 134.483 140.584 136.135C140.178 137.786 139.758 139.465 139.325 141.171C138.919 142.85 138.716 144.474 138.716 146.045C138.716 148.671 139.434 150.837 140.869 152.543C142.331 154.222 144.213 155.061 146.514 155.061ZM158.942 118.264C158.238 118.264 157.629 118.007 157.115 117.492C156.6 116.951 156.343 116.328 156.343 115.624C156.343 114.92 156.6 114.311 157.115 113.796C157.629 113.282 158.238 113.025 158.942 113.025C159.646 113.025 160.256 113.282 160.77 113.796C161.285 114.311 161.542 114.92 161.542 115.624C161.542 116.328 161.285 116.951 160.77 117.492C160.256 118.007 159.646 118.264 158.942 118.264ZM165.075 171.511C162.747 171.511 160.987 170.888 159.795 169.642C158.631 168.424 158.049 166.745 158.049 164.606C158.049 163.469 158.157 162.345 158.374 161.235C158.59 160.152 158.875 159.028 159.227 157.864L164.425 141.049L159.877 132.764L162.882 131.301L167.959 140.765L162.313 158.92C161.637 161.167 161.298 162.981 161.298 164.362C161.298 165.716 161.596 166.704 162.192 167.327C162.814 167.95 163.776 168.261 165.075 168.261C166.456 168.261 167.512 168.14 168.243 167.896C169.001 167.679 169.584 167.192 169.99 166.434C170.396 165.676 170.775 164.525 171.127 162.981C171.344 162.007 171.628 160.829 171.98 159.448C172.359 158.067 172.711 156.889 173.036 155.914C173.605 154.236 174.187 152.652 174.782 151.162C175.405 149.646 175.974 148.319 176.488 147.182C177.03 146.018 177.449 145.138 177.747 144.542C178.695 144.732 179.778 144.894 180.997 145.029C182.242 145.165 183.867 145.233 185.87 145.233C187.712 145.233 189.296 145.219 190.622 145.192C191.976 145.138 193.235 145.084 194.4 145.029C194.941 145.571 195.577 146.505 196.309 147.832C197.04 149.132 197.744 150.621 198.421 152.3C199.097 153.951 199.612 155.576 199.964 157.173C200.614 160.071 201.155 161.952 201.588 162.819C202.049 163.685 202.563 164.119 203.132 164.119C203.755 164.119 204.513 163.848 205.406 163.306C206.327 162.792 207.139 162.142 207.843 161.357C208.547 160.599 208.899 159.881 208.899 159.204C208.899 158.636 208.791 157.918 208.574 157.052C208.358 156.158 208.019 155.251 207.559 154.33C206.963 153.058 206.34 151.487 205.691 149.619C205.041 147.751 204.716 145.991 204.716 144.339C204.716 142.444 204.987 140.318 205.528 137.962C206.097 135.58 206.896 133.305 207.924 131.139C207.924 125.886 206.638 121.337 204.066 117.492C201.494 113.647 197.784 110.655 192.937 108.516L194.237 105.511C199.788 107.975 203.998 111.481 206.868 116.03C209.739 120.552 211.174 125.845 211.174 131.911C210.253 133.617 209.481 135.593 208.859 137.841C208.263 140.088 207.965 142.254 207.965 144.339C207.965 145.53 208.222 146.925 208.737 148.522C209.278 150.12 209.86 151.569 210.483 152.868C210.889 153.708 211.268 154.723 211.62 155.914C211.972 157.106 212.148 158.202 212.148 159.204C212.148 160.477 211.675 161.736 210.727 162.981C209.779 164.254 208.601 165.296 207.193 166.109C205.812 166.948 204.459 167.368 203.132 167.368C201.588 167.368 200.343 166.65 199.395 165.215C198.448 163.78 197.581 161.343 196.796 157.904C196.525 156.659 195.997 155.075 195.212 153.153C194.454 151.23 193.682 149.619 192.897 148.319C192.057 148.373 191.096 148.414 190.013 148.441C188.93 148.468 187.549 148.482 185.87 148.482C184.381 148.482 183.136 148.455 182.134 148.401C181.159 148.346 180.36 148.279 179.737 148.197C179.061 149.362 178.411 150.702 177.788 152.218C177.192 153.708 176.624 155.319 176.082 157.052C175.865 157.81 175.608 158.717 175.31 159.773C175.013 160.829 174.755 161.817 174.539 162.738C174.051 164.931 173.442 166.664 172.711 167.936C172.007 169.209 171.046 170.116 169.827 170.658C168.636 171.226 167.052 171.511 165.075 171.511ZM223.236 145.639C221.774 145.639 220.272 145.273 218.728 144.542C217.212 143.784 215.926 142.823 214.87 141.658C213.841 140.467 213.326 139.249 213.326 138.003C212.514 137.434 211.742 136.757 211.011 135.972C210.28 135.187 209.644 134.28 209.102 133.251L210.971 130.367C211.729 131.559 212.555 132.709 213.448 133.82C214.342 134.903 215.1 135.715 215.723 136.257C217.374 136.257 218.647 136.541 219.54 137.109C220.434 137.651 221.328 138.775 222.221 140.481C222.844 141.645 223.521 142.593 224.252 143.324C225.01 144.028 225.389 144.556 225.389 144.908C225.389 145.395 224.672 145.639 223.236 145.639Z" fill="#2B7489"/>
<path d="M78.9432 171.511L40.3586 150.309V106.445L78.9432 85L117.528 106.445V150.309L78.9432 171.511ZM53.8835 151.122L46.654 147.141V145.395L53.8835 149.375V151.122ZM48.766 144.948L47.3039 144.136V139.018L48.766 139.79V144.948ZM63.7937 156.605L56.5642 152.584V150.837L63.7937 154.858V156.605ZM53.2743 147.426L51.8122 146.613V141.496L53.2743 142.268V147.426ZM49.822 140.887L46.2885 138.937L48.0756 137.394L49.822 140.887ZM61.0318 154.412L59.5697 153.477V147.913L61.0318 148.604V154.412ZM54.3303 143.405L50.7968 141.415L52.5839 139.871L54.3303 143.405ZM62.5752 149.781C60.8965 149.781 59.4885 149.023 58.3512 147.507C57.214 145.964 56.6454 144.082 56.6454 141.861L65.2152 146.37C65.2152 147.453 64.9851 148.292 64.5248 148.888C64.0915 149.484 63.4417 149.781 62.5752 149.781ZM77.3186 166.921V128.865L43.6079 110.181V148.36L77.3186 166.921ZM80.5678 166.921L114.279 148.36V110.181L103.84 115.989L102.378 113.065L112.532 107.42L78.9432 88.696L45.3543 107.42L78.9432 126.021L88.6909 120.62L90.2749 123.503L80.5678 128.865V166.921ZM88.2441 141.293V122.122L52.7463 101.206L55.9143 99.3778L91.4933 120.254V133.617L93.4022 130.977L97.0576 132.073L100.185 127.402L102.053 128.012V114.771L65.8244 93.5698L69.0331 91.7015L105.303 112.903V132.398L101.566 131.22L98.5604 135.85L94.2146 134.591L88.2441 141.293Z" fill="#2B7489"/>
<path d="M0 166.393V91.336H25.4252V99.0529H8.44799V158.676H25.4252V166.393H0Z" fill="#2B7489"/>
</g>
<defs>
<clipPath id="clip0_28_2">
<rect width="256" height="256" fill="white"/>
</clipPath>
</defs>
</svg>
