<svg width="60" height="60" viewBox="0 0 60 60" fill="none" xmlns="http://www.w3.org/2000/svg">
<rect width="60" height="60" rx="12" fill="#BEC2C7"/>
<path d="M30 42C26.65 42 23.8125 40.8375 21.4875 38.5125C19.1625 36.1875 18 33.35 18 30C18 26.65 19.1625 23.8125 21.4875 21.4875C23.8125 19.1625 26.65 18 30 18C31.725 18 33.375 18.3563 34.95 19.0688C36.525 19.7813 37.875 20.8 39 22.125V18H42V28.5H31.5V25.5H37.8C37 24.1 35.9063 23 34.5188 22.2C33.1313 21.4 31.625 21 30 21C27.5 21 25.375 21.875 23.625 23.625C21.875 25.375 21 27.5 21 30C21 32.5 21.875 34.625 23.625 36.375C25.375 38.125 27.5 39 30 39C31.925 39 33.6625 38.45 35.2125 37.35C36.7625 36.25 37.85 34.8 38.475 33H41.625C40.925 35.65 39.5 37.8125 37.35 39.4875C35.2 41.1625 32.75 42 30 42Z" fill="#101216"/>
</svg>
